<svg xmlns="http://www.w3.org/2000/svg" xmlns:xlink="http://www.w3.org/1999/xlink" viewBox="0,0,256,256" width="200px" height="200px" fill-rule="nonzero"><g fill="none" fill-rule="nonzero" stroke="none" stroke-width="1" stroke-linecap="none" stroke-linejoin="none" stroke-miterlimit="10" stroke-dasharray="" stroke-dashoffset="0" font-family="none" font-weight="none" font-size="none" text-anchor="none" style="mix-blend-mode: normal"><g transform="scale(2.56,2.56)"><path d="M69.986,81.992h-39c-6.6,0 -12,-5.4 -12,-12v-39c0,-6.6 5.4,-12 12,-12h39c6.6,0 12,5.4 12,12v39c0,6.6 -5.4,12 -12,12z" fill="#daaa63" stroke="none" stroke-linecap="butt" stroke-linejoin="miter"></path><path d="M69.986,82.992h-39c-7.18,0 -13,-5.82 -13,-13v-39c0,-7.18 5.82,-13 13,-13h39c7.18,0 13,5.82 13,13v39c0,7.18 -5.821,13 -13,13zM19.986,30.992v39c0,6.075 4.925,11 11,11h39c6.075,0 11,-4.925 11,-11v-39c0,-6.075 -4.925,-11 -11,-11h-39c-6.076,0 -11,4.925 -11,11z" fill="#2c1810" stroke="none" stroke-linecap="butt" stroke-linejoin="miter"></path><path d="M67.148,77.992h-33.325c-5.985,0 -10.837,-4.852 -10.837,-10.837v-33.326c0,-5.985 4.852,-10.837 10.837,-10.837h33.663c0.276,0 0.5,0.224 0.5,0.5c0,0.276 -0.224,0.5 -0.5,0.5h-33.663c-5.433,0 -9.837,4.404 -9.837,9.837v33.325c0,5.433 4.405,9.838 9.838,9.838h33.325c5.433,0 9.837,-4.404 9.837,-9.837v-18.663c0,-0.276 0.224,-0.5 0.5,-0.5c0.276,0 0.5,0.224 0.5,0.5v18.662c0,5.986 -4.853,10.838 -10.838,10.838zM77.486,45.571c-0.276,0 -0.5,-0.224 -0.5,-0.5v-4c0,-0.276 0.224,-0.5 0.5,-0.5c0.276,0 0.5,0.224 0.5,0.5v4c0,0.277 -0.224,0.5 -0.5,0.5zM77.486,39.571c-0.276,0 -0.5,-0.224 -0.5,-0.5v-2c0,-0.276 0.224,-0.5 0.5,-0.5c0.276,0 0.5,0.224 0.5,0.5v2c0,0.277 -0.224,0.5 -0.5,0.5z" fill="#2c1810" stroke="none" stroke-linecap="butt" stroke-linejoin="miter"></path><path d="M29.5,39.5v26c0,0 2.98,-3 9,-3c8,0 11.039,7 11.039,7v-29c0,0 -3.039,-6 -10.02,-6c-8.019,0 -10.019,5 -10.019,5z" fill="#ffffff" stroke="none" stroke-linecap="butt" stroke-linejoin="miter"></path><path d="M71.539,39.5v26c0,0 -2.98,-3 -9,-3c-8,0 -11.039,7 -11.039,7v-29c0,0 3.039,-6 10.02,-6c8.019,0 10.019,5 10.019,5z" fill="#ffffff" stroke="none" stroke-linecap="butt" stroke-linejoin="miter"></path><path d="M29.5,39.5v26c0,0 2.98,-3 9,-3c8,0 11.039,7 11.039,7v-29c0,0 -3.039,-6 -10.02,-6c-8.019,0 -10.019,5 -10.019,5z" fill="none" stroke="#2c1810" stroke-linecap="round" stroke-linejoin="round"></path><path d="M71.539,39.5v26c0,0 -2.98,-3 -9,-3c-8,0 -11.039,7 -11.039,7v-29c0,0 3.039,-6 10.02,-6c8.019,0 10.019,5 10.019,5z" fill="none" stroke="#2c1810" stroke-linecap="round" stroke-linejoin="round"></path></g></g></svg>